<?xml version="1.0" standalone="no"?>
<!DOCTYPE svg PUBLIC "-//W3C//DTD SVG 20010904//EN"
 "http://www.w3.org/TR/2001/REC-SVG-20010904/DTD/svg10.dtd">
<svg version="1.0" xmlns="http://www.w3.org/2000/svg"
 width="512.000000pt" height="512.000000pt" viewBox="0 0 512.000000 512.000000"
 preserveAspectRatio="xMidYMid meet">
<metadata>
Created by potrace 1.11, written by Peter Selinger 2001-2013
</metadata>
<g transform="translate(0.000000,512.000000) scale(0.100000,-0.100000)"
fill="#000000" stroke="none">
<path d="M1715 4946 c-78 -19 -154 -65 -225 -137 -61 -61 -77 -85 -136 -199
-61 -120 -87 -314 -70 -525 20 -239 135 -457 311 -590 162 -122 377 -133 534
-25 49 33 161 142 161 156 0 3 13 24 29 47 83 122 147 348 145 517 -4 364
-219 679 -514 753 -69 18 -171 19 -235 3z"/>
<path d="M3395 4928 c-248 -32 -468 -210 -594 -479 -62 -132 -83 -223 -87
-379 -4 -147 7 -214 53 -330 101 -254 370 -378 628 -290 84 28 120 47 200 107
60 44 185 164 185 178 0 2 20 32 44 67 63 91 114 205 132 293 28 139 26 321
-5 430 -77 276 -298 436 -556 403z"/>
<path d="M570 3788 c-247 -36 -425 -303 -419 -629 7 -487 351 -924 710 -904
63 3 121 20 161 47 14 10 30 18 35 18 18 0 112 98 151 158 95 147 134 344 108
536 -8 56 -47 199 -57 211 -5 5 -9 15 -9 23 0 26 -90 195 -141 264 -152 205
-346 304 -539 276z"/>
<path d="M4320 3760 c-95 -26 -116 -36 -205 -95 -129 -86 -238 -212 -320 -369
-38 -73 -51 -114 -84 -255 -15 -69 -6 -285 17 -367 101 -367 450 -508 788
-319 125 70 295 259 370 410 83 171 101 414 45 606 -58 201 -203 362 -356 395
-69 15 -190 12 -255 -6z"/>
<path d="M2413 3294 c-93 -16 -160 -38 -258 -86 -121 -60 -176 -107 -244 -207
-50 -73 -142 -259 -170 -341 -62 -183 -174 -376 -300 -513 -44 -48 -177 -148
-351 -264 -358 -239 -500 -398 -541 -603 -17 -88 -6 -315 21 -409 42 -147 113
-255 270 -407 117 -113 192 -162 327 -214 77 -30 241 -74 317 -86 21 -3 48 -8
60 -10 11 -2 48 -7 81 -10 33 -3 74 -7 90 -9 17 -2 142 -4 278 -5 l248 0 52
51 c150 146 303 210 517 215 99 2 151 -2 255 -20 73 -13 378 -94 474 -126 186
-62 257 -74 385 -66 122 7 132 8 226 31 35 9 71 17 80 18 72 12 199 87 261
154 72 76 135 201 154 301 3 15 8 38 12 52 12 47 11 314 -2 400 -22 145 -75
321 -128 425 -24 49 -126 199 -161 239 -14 16 -26 34 -26 39 0 6 -3 7 -7 4 -3
-4 -13 -1 -22 6 -9 8 -54 36 -101 64 -359 211 -388 230 -460 300 -133 126
-270 344 -304 483 -9 36 -24 81 -32 100 -9 19 -23 51 -32 70 -9 19 -19 37 -22
40 -4 3 -11 12 -16 21 -20 37 -93 114 -154 164 -154 124 -321 187 -540 201
-149 10 -167 10 -237 -2z"/>
</g>
</svg>
